<svg width="160" height="40" viewBox="0 0 160 40" fill="none" xmlns="http://www.w3.org/2000/svg">
<g clip-path="url(#clip0)">
<path fill-rule="evenodd" clip-rule="evenodd" d="M61.1817 8.83V6.24733C61.1817 4.46066 61.7311 3.13 62.8284 2.258C63.9271 1.386 65.7457 0.949997 68.2871 0.949997C70.3764 0.949997 72.0871 1.274 73.4231 1.918L73.0351 6.15H72.3564C71.9257 4.922 71.5817 4.03533 71.3231 3.486C71.0644 2.93666 70.7257 2.50466 70.3057 2.19266C69.8857 1.882 69.3097 1.72466 68.5777 1.72466C67.9311 1.72466 67.4577 1.85533 67.1564 2.114C66.8551 2.37266 66.7044 2.77 66.7044 3.30866C66.7044 3.78066 66.7471 4.20733 66.8337 4.58466C66.9191 4.962 67.0391 5.39666 67.1884 5.89133C67.2964 6.21533 67.3884 6.54333 67.4631 6.87666C67.5391 7.21133 67.5764 7.55133 67.5764 7.894V8.83H71.4857V9.67H67.5764V22.946C67.5764 23.1833 67.6257 23.3447 67.7217 23.43C67.8191 23.5167 68.0284 23.5913 68.3511 23.6567L69.5457 23.9473V24.5273H59.2764V23.9473L60.4057 23.6887C60.7297 23.6233 60.9391 23.5487 61.0364 23.4633C61.1324 23.3767 61.1817 23.214 61.1817 22.9767V9.67H59.0817V8.83H61.1817Z" fill="#1E2733"/>
<path fill-rule="evenodd" clip-rule="evenodd" d="M79.2943 21.1041C79.4769 22.1375 79.8049 22.8921 80.2796 23.3655C80.7529 23.8388 81.4516 24.0761 82.3783 24.0761C83.3049 24.0761 84.0036 23.8388 84.4783 23.3655C84.9516 22.8921 85.2796 22.1375 85.4623 21.1041C85.6463 20.0708 85.7383 18.5961 85.7383 16.6801C85.7383 14.7628 85.6463 13.2895 85.4623 12.2548C85.2796 11.2215 84.9516 10.4668 84.4783 9.99347C84.0036 9.52014 83.3049 9.28414 82.3783 9.28414C81.4516 9.28414 80.7529 9.52014 80.2796 9.99347C79.8049 10.4668 79.4769 11.2215 79.2943 12.2548C79.1103 13.2895 79.0196 14.7628 79.0196 16.6801C79.0196 18.5961 79.1103 20.0708 79.2943 21.1041ZM89.8556 22.8815C88.1223 24.2361 85.6289 24.9161 82.3783 24.9161C79.1276 24.9161 76.6343 24.2361 74.9023 22.8815C73.1676 21.5228 72.3009 19.4575 72.3009 16.6801C72.3009 13.9015 73.1676 11.8335 74.9023 10.4788C76.6343 9.12147 79.1276 8.4428 82.3783 8.4428C85.6289 8.4428 88.1223 9.12147 89.8556 10.4788C91.5889 11.8335 92.4556 13.9015 92.4556 16.6801C92.4556 19.4575 91.5889 21.5228 89.8556 22.8815Z" fill="#1E2733"/>
<path fill-rule="evenodd" clip-rule="evenodd" d="M104.112 23.6888C104.596 23.3861 104.839 22.8595 104.839 22.1061C104.839 21.5888 104.709 21.1688 104.451 20.8461C104.193 20.5221 103.784 20.2328 103.224 19.9741C102.664 19.7168 101.771 19.3595 100.544 18.9088C98.4547 18.1541 96.9693 17.3741 96.0867 16.5661C95.2027 15.7595 94.7627 14.6448 94.7627 13.2235C94.7627 11.6075 95.364 10.4088 96.5707 9.62213C97.776 8.8368 99.6067 8.44347 102.061 8.44347C103.309 8.44347 104.537 8.56747 105.744 8.81547C106.948 9.06213 107.885 9.34747 108.553 9.67013L108.167 13.5461H107.616C107.036 12.1048 106.335 11.0115 105.517 10.2688C104.699 9.52613 103.515 9.15413 101.964 9.15413C100.973 9.15413 100.209 9.2888 99.6707 9.55813C99.132 9.82747 98.8627 10.3181 98.8627 11.0275C98.8627 11.5235 98.988 11.9208 99.2347 12.2221C99.4827 12.5235 99.8707 12.8021 100.397 13.0608C100.925 13.3195 101.804 13.6968 103.031 14.1928C104.796 14.9035 106.131 15.5181 107.036 16.0328C107.94 16.5501 108.607 17.1435 109.037 17.8088C109.468 18.4768 109.684 19.3181 109.684 20.3288C109.684 21.9448 109.064 23.1115 107.827 23.8328C106.588 24.5555 104.731 24.9155 102.255 24.9155C100.941 24.9155 99.5693 24.7915 98.1373 24.5435C96.7053 24.2968 95.6333 24.0101 94.9227 23.6888L95.376 19.2955H95.924C96.312 20.9968 97.0013 22.2288 97.992 22.9928C98.9813 23.7581 100.273 24.1408 101.867 24.1408C102.879 24.1408 103.628 23.9901 104.112 23.6888Z" fill="#1E2733"/>
<path fill-rule="evenodd" clip-rule="evenodd" d="M110.952 9.67054V8.83053C111.619 8.83053 112.116 8.77854 112.437 8.6692C112.761 8.5612 113.084 8.36787 113.407 8.08787L119.156 2.91987H119.447V8.83053H123.613V9.67054H119.447V20.5225C119.447 21.5559 119.571 22.2825 119.819 22.7039C120.065 23.1225 120.491 23.3332 121.095 23.3332C121.567 23.3332 121.988 23.2345 122.353 23.0412C122.72 22.8479 123.117 22.5145 123.549 22.0399L124.065 22.6545C122.709 24.1612 120.707 24.9159 118.059 24.9159C116.271 24.9159 114.989 24.5385 114.215 23.7839C113.439 23.0319 113.052 21.8585 113.052 20.2639V9.67054H110.952Z" fill="#1E2733"/>
<path fill-rule="evenodd" clip-rule="evenodd" d="M132.34 10.7044C131.909 11.6951 131.683 13.2657 131.661 15.4204H137.088V12.9977C137.088 11.6844 136.931 10.7257 136.619 10.1217C136.308 9.5204 135.688 9.21907 134.761 9.21907C133.579 9.21907 132.771 9.71374 132.34 10.7044ZM132.808 21.7191C133.551 22.9671 134.945 23.5911 136.991 23.5911C138.003 23.5911 138.901 23.4417 139.688 23.1391C140.473 22.8377 141.287 22.4071 142.127 21.8471L142.547 22.4617C140.544 24.0964 137.896 24.9164 134.601 24.9164C131.629 24.9164 129.288 24.1991 127.576 22.7671C125.864 21.3364 125.008 19.2417 125.008 16.4857C125.008 13.8804 125.88 11.8897 127.624 10.5111C129.368 9.1324 131.812 8.44307 134.956 8.44307C136.744 8.44307 138.251 8.72307 139.477 9.2844C140.705 9.84307 141.615 10.5911 142.207 11.5284C142.8 12.4644 143.095 13.5031 143.095 14.6444C143.095 15.2271 143.041 15.7644 142.935 16.2604H131.661C131.683 18.6497 132.065 20.4684 132.808 21.7191Z" fill="#1E2733"/>
<path fill-rule="evenodd" clip-rule="evenodd" d="M158.321 8.54093C159.032 8.54093 159.592 8.62627 160 8.7996L159.516 13.8369H159.29L152.668 12.3836V22.9769C152.668 23.2143 152.717 23.3809 152.814 23.4769C152.91 23.5743 153.109 23.6556 153.41 23.7209L154.51 23.9476V24.5276H144.304V23.9476L145.434 23.6889C145.757 23.6236 145.966 23.5489 146.064 23.4623C146.161 23.3756 146.209 23.2143 146.209 22.9769V10.7689C146.209 10.5316 146.161 10.3716 146.064 10.2849C145.966 10.1996 145.757 10.1223 145.434 10.0596L144.304 9.80093V9.21827L152.054 8.25027H152.604V11.4143C154.477 9.49827 156.382 8.54093 158.321 8.54093Z" fill="#1E2733"/>
<g opacity="0.5">
<path opacity="0.5" fill-rule="evenodd" clip-rule="evenodd" d="M60.1673 34.8743C60.1673 31.8289 62.426 29.7489 65.25 29.7489C67.1953 29.7489 68.414 30.6836 69.1873 31.8436L67.9233 32.5129C67.4033 31.6809 66.4233 31.0703 65.25 31.0703C63.2433 31.0703 61.698 32.6463 61.698 34.8743C61.698 37.0876 63.2433 38.6783 65.25 38.6783C66.4233 38.6783 67.4033 38.0689 67.9233 37.2369L69.1873 37.9049C68.3993 39.0649 67.1953 39.9996 65.25 39.9996C62.426 39.9996 60.1673 37.9209 60.1673 34.8743Z" fill="#1E2733"/>
<path opacity="0.5" fill-rule="evenodd" clip-rule="evenodd" d="M75.7787 31.0709C73.6533 31.0709 72.316 32.6909 72.316 34.8749C72.316 37.0443 73.6533 38.6776 75.7787 38.6776C77.8733 38.6776 79.2413 37.0443 79.2413 34.8749C79.2413 32.6909 77.8733 31.0709 75.7787 31.0709ZM75.7787 29.7483C78.736 29.7483 80.7707 31.9336 80.7707 34.8749C80.7707 37.8176 78.736 40.0003 75.7787 40.0003C72.8213 40.0003 70.7853 37.8176 70.7853 34.8749C70.7853 31.9336 72.8213 29.7483 75.7787 29.7483Z" fill="#1E2733"/>
<path opacity="0.5" fill-rule="evenodd" clip-rule="evenodd" d="M91.8437 31.9472L88.6344 39.8219H88.0104L84.8011 31.9472V39.8219H83.3157V29.9139H85.4397L88.3224 37.0285L91.2051 29.9139H93.3291V39.8219H91.8437V31.9472Z" fill="#1E2733"/>
<path opacity="0.5" fill-rule="evenodd" clip-rule="evenodd" d="M104.867 31.9472L101.659 39.8219H101.033L97.8239 31.9472V39.8219H96.3385V29.9139H98.4625L101.345 37.0285L104.228 29.9139H106.352V39.8219H104.867V31.9472Z" fill="#1E2733"/>
<path opacity="0.5" fill-rule="evenodd" clip-rule="evenodd" d="M109.359 29.9133H116.015V31.22H110.845V34.116H115.913V35.4253H110.845V38.516H116.015V39.8227H109.359V29.9133Z" fill="#1E2733"/>
<path opacity="0.5" fill-rule="evenodd" clip-rule="evenodd" d="M122.613 31.22H120.115V34.696H122.613C123.682 34.696 124.455 33.9973 124.455 32.96C124.455 31.9187 123.682 31.22 122.613 31.22ZM121.974 36.0027H120.115V39.8227H118.63V29.9133H122.806C124.693 29.9133 125.985 31.1307 125.985 32.96C125.985 34.74 124.781 35.692 123.519 35.856L126.059 39.8227H124.335L121.974 36.0027Z" fill="#1E2733"/>
<path opacity="0.5" fill-rule="evenodd" clip-rule="evenodd" d="M127.957 34.8743C127.957 31.8289 130.216 29.7489 133.04 29.7489C134.985 29.7489 136.204 30.6836 136.977 31.8436L135.713 32.5129C135.193 31.6809 134.213 31.0703 133.04 31.0703C131.033 31.0703 129.488 32.6463 129.488 34.8743C129.488 37.0876 131.033 38.6783 133.04 38.6783C134.213 38.6783 135.193 38.0689 135.713 37.2369L136.977 37.9049C136.189 39.0649 134.985 39.9996 133.04 39.9996C130.216 39.9996 127.957 37.9209 127.957 34.8743Z" fill="#1E2733"/>
<path opacity="0.5" fill-rule="evenodd" clip-rule="evenodd" d="M139.199 29.9133H145.855V31.22H140.684V34.116H145.752V35.4253H140.684V38.516H145.855V39.8227H139.199V29.9133Z" fill="#1E2733"/>
</g>
<mask id="mask0" mask-type="alpha" maskUnits="userSpaceOnUse" x="5" y="0" width="48" height="40">
<path d="M5.96054 0.000396729H52.6685V40H5.96054V0.000396729Z" fill="white"/>
</mask>
<g mask="url(#mask0)">
<path fill-rule="evenodd" clip-rule="evenodd" d="M45.3685 24.5124H52.6685L34.8272 0.000396729L5.96054 40.0004H13.2165L27.9605 19.6871L31.5059 24.5124L38.8259 24.5404L31.5832 14.6417L34.8659 10.0671L45.3685 24.5124Z" fill="url(#paint0_linear)"/>
</g>
<path opacity="0.3" fill-rule="evenodd" clip-rule="evenodd" d="M0 29.9133H7.26133L28.7 0H21.4387L0 29.9133Z" fill="#FEFEFE"/>
</g>
<defs>
<linearGradient id="paint0_linear" x1="5.96054" y1="40.0004" x2="45.4846" y2="-6.15183" gradientUnits="userSpaceOnUse">
<stop stop-color="#D3A875"/>
<stop offset="1" stop-color="#E8C294"/>
</linearGradient>
<clipPath id="clip0">
<rect width="160" height="40" fill="white"/>
</clipPath>
</defs>
</svg>
