<svg width="750" height="750" viewBox="0 0 750 750" fill="none" xmlns="http://www.w3.org/2000/svg">
<path d="M25.3531 351.43L352.447 135.463C365.194 126.846 385.519 126.846 398.437 135.463L725.531 352.636C744.823 365.391 744.823 386.936 725.531 399.69L681.781 428.475C617.706 326.782 504.368 259.39 375.012 259.39C245.655 259.39 133.351 326.955 68.2423 428.475L24.4919 399.518C5.02816 385.729 5.02816 364.357 25.3531 351.43ZM375.012 349.362C277.693 349.362 192.259 400.725 144.203 477.769L218.957 528.098C250.995 475.701 307.664 440.367 373.978 440.367C439.259 440.367 496.962 475.701 528.999 528.098L603.754 477.769C557.764 400.725 472.158 349.362 375.012 349.362ZM375.012 530.167C340.735 530.167 310.936 549.471 294.917 577.221L345.213 610.314C353.825 616.691 363.471 621 374.15 621C385.863 621 395.509 616.691 403.088 610.314L453.383 577.221C440.121 550.505 409.116 530.167 375.012 530.167Z" fill="#D6663E"/>
</svg>
