<svg width="750" height="750" viewBox="0 0 750 750" fill="none" xmlns="http://www.w3.org/2000/svg">
<path d="M172.1 361.3L362 236C369.4 231 381.2 231 388.7 236L578.6 362C589.8 369.4 589.8 381.9 578.6 389.3L553.2 406C516 347 450.2 307.9 375.1 307.9C300 307.9 234.8 347.1 197 406L171.6 389.2C160.3 381.2 160.3 368.8 172.1 361.3ZM375.1 360.1C318.6 360.1 269 389.9 241.1 434.6L284.5 463.8C303.1 433.4 336 412.9 374.5 412.9C412.4 412.9 445.9 433.4 464.5 463.8L507.9 434.6C481.2 389.9 431.5 360.1 375.1 360.1ZM375.1 465C355.2 465 337.9 476.2 328.6 492.3L357.8 511.5C362.8 515.2 368.4 517.7 374.6 517.7C381.4 517.7 387 515.2 391.4 511.5L420.6 492.3C412.9 476.8 394.9 465 375.1 465Z" fill="#F8F2EA"/>
<path fill-rule="evenodd" clip-rule="evenodd" d="M374.5 46C110.9 46 45 111.9 45 375.5C45 639.1 110.9 705 374.5 705C638.1 705 704 639.1 704 375.5C704 111.9 638.1 46 374.5 46Z" fill="#D6663E"/>
<path d="M172.1 361.3L362 236C369.4 231 381.2 231 388.7 236L578.6 362C589.8 369.4 589.8 381.9 578.6 389.3L553.2 406C516 347 450.2 307.9 375.1 307.9C300 307.9 234.8 347.1 197 406L171.6 389.2C160.3 381.2 160.3 368.8 172.1 361.3ZM375.1 360.1C318.6 360.1 269 389.9 241.1 434.6L284.5 463.8C303.1 433.4 336 412.9 374.5 412.9C412.4 412.9 445.9 433.4 464.5 463.8L507.9 434.6C481.2 389.9 431.5 360.1 375.1 360.1ZM375.1 465C355.2 465 337.9 476.2 328.6 492.3L357.8 511.5C362.8 515.2 368.4 517.7 374.6 517.7C381.4 517.7 387 515.2 391.4 511.5L420.6 492.3C412.9 476.8 394.9 465 375.1 465Z" fill="#F8F2EA"/>
</svg>
