<?xml version="1.0" encoding="utf-8"?>
<!-- Generator: Adobe Illustrator 19.0.0, SVG Export Plug-In . SVG Version: 6.00 Build 0)  -->
<svg version="1.1" id="Layer_1" xmlns="http://www.w3.org/2000/svg" xmlns:xlink="http://www.w3.org/1999/xlink" x="0px" y="0px"
	 width="750px" height="750px" viewBox="0 0 750 750" style="enable-background:new 0 0 750 750;" xml:space="preserve">
<style type="text/css">
	.st0{fill:#FFFFFF;}
</style>
<path class="st0" d="M375,0C167.9,0,0,167.9,0,375s167.9,375,375,375s375-167.9,375-375S582.1,0,375,0z M396.2,551.9
	c-5.7,4.8-13,8-21.8,8c-8,0-15.3-3.2-21.8-8L314.8,527c12.1-20.9,34.5-35.4,60.3-35.4c25.7,0,49,15.3,59,35.4L396.2,551.9z
	 M491,490.1c-24.1-39.4-67.5-66-116.6-66c-49.9,0-92.5,26.6-116.6,66l-56.2-37.8c36.2-57.9,100.4-96.6,173.7-96.6
	c73.1,0,137.5,38.6,172.1,96.6L491,490.1z M638.8,393.5l-32.9,21.6C557.7,338.7,472.4,288,375.1,288s-181.8,50.8-230.8,127.1
	l-32.9-21.8C96.7,383,96.7,367,112,357.3l246.1-162.4c9.6-6.5,24.9-6.5,34.6,0l246.1,163.3C653.4,367.7,653.4,383.9,638.8,393.5z"/>
</svg>
