<?xml version="1.0" encoding="utf-8"?>
<!-- Generator: Adobe Illustrator 19.0.0, SVG Export Plug-In . SVG Version: 6.00 Build 0)  -->
<svg version="1.1" id="Layer_1" xmlns="http://www.w3.org/2000/svg" xmlns:xlink="http://www.w3.org/1999/xlink" x="0px" y="0px"
	 width="750px" height="750px" viewBox="0 0 750 750" style="enable-background:new 0 0 750 750;" xml:space="preserve">
<style type="text/css">
	.st0{fill:#1F2834;}
	.st1{fill:#D9B07D;}
</style>
<circle id="XMLID_1_" class="st0" cx="375" cy="375" r="375"/>
<path class="st1" d="M172.1,361.3L362,236c7.4-5,19.2-5,26.7,0l189.9,126c11.2,7.4,11.2,19.9,0,27.3L553.2,406
	c-37.2-59-103-98.1-178.1-98.1S234.8,347.1,197,406l-25.4-16.8C160.3,381.2,160.3,368.8,172.1,361.3z M375.1,360.1
	c-56.5,0-106.1,29.8-134,74.5l43.4,29.2c18.6-30.4,51.5-50.9,90-50.9c37.9,0,71.4,20.5,90,50.9l43.4-29.2
	C481.2,389.9,431.5,360.1,375.1,360.1z M375.1,465c-19.9,0-37.2,11.2-46.5,27.3l29.2,19.2c5,3.7,10.6,6.2,16.8,6.2
	c6.8,0,12.4-2.5,16.8-6.2l29.2-19.2C412.9,476.8,394.9,465,375.1,465z"/>
</svg>
